<svg width="100" height="100" viewBox="0 0 100 100" fill="none" xmlns="http://www.w3.org/2000/svg">
<rect width="100" height="100" fill="#0060F2"/>
<path d="M70 54.1624C70 53.9624 69.886 53.7704 69.707 53.6694L60.275 48.3744L60.299 39.0364C60.299 38.8354 60.186 38.6414 60.006 38.5414L50.274 33.0764C50.092 32.9744 49.868 32.9744 49.687 33.0774L40.02 38.5404C39.839 38.6284 39.727 38.8414 39.726 39.0334L39.702 48.3674L30.319 53.6694C30.139 53.7574 30.026 53.9704 30.025 54.1614L30 63.8254C30 64.0284 30.111 64.2184 30.293 64.3194L40.025 69.7844C40.185 69.9014 40.446 69.8774 40.613 69.7834L45.088 67.2534C45.368 67.0954 45.463 66.7474 45.3 66.4754C45.138 66.2034 44.78 66.1104 44.5 66.2684L40.907 68.2984L40.929 59.9564L49.424 55.1554L49.402 63.4984L46.988 64.8624C46.708 65.0204 46.613 65.3694 46.776 65.6414C46.938 65.9134 47.296 66.0054 47.576 65.8474L49.988 64.4844L59.427 69.7844C59.587 69.9014 59.848 69.8774 60.014 69.7834L69.684 64.3184C69.864 64.2174 69.974 64.0304 69.974 63.8284L69.984 60.5684C69.984 60.2534 69.722 59.9984 69.399 59.9974H69.397C69.074 59.9974 68.812 60.2514 68.811 60.5654L68.804 63.4974L60.308 68.2994L60.33 59.9554L68.826 55.1554L68.818 57.9424C68.818 58.2574 69.079 58.5124 69.402 58.5144H69.404C69.727 58.5144 69.989 58.2604 69.99 57.9454L70 54.1654V54.1624V54.1624ZM49.457 44.8274L49.435 53.1774L40.873 48.3694L40.895 40.0194L49.457 44.8274V44.8274ZM40.281 49.3574L48.844 54.1644L40.343 58.9694L31.78 54.1614L40.281 49.3574ZM50.596 55.1494L59.158 59.9564L59.136 68.3054L50.574 63.4984L50.596 55.1484V55.1494ZM59.744 58.9694L51.184 54.1624L59.684 49.3584L68.245 54.1644L59.744 58.9694V58.9694ZM49.982 34.2294L58.544 39.0364L53.97 41.6214C53.69 41.7794 53.595 42.1284 53.758 42.4004C53.92 42.6724 54.279 42.7644 54.559 42.6064L59.125 40.0264L59.103 48.3664L50.608 53.1684L50.63 44.8274L52.181 43.9504C52.461 43.7924 52.556 43.4434 52.393 43.1714C52.231 42.8994 51.872 42.8064 51.593 42.9654L50.043 43.8404L41.481 39.0334L49.982 34.2284V34.2294ZM31.195 55.1484L39.757 59.9554L39.735 68.3044L31.173 63.4974L31.195 55.1474V55.1484Z" fill="white"/>
</svg>
