<svg xmlns="http://www.w3.org/2000/svg" width="120" height="120" viewBox="0 0 120 120">
    <g fill="none" fill-rule="evenodd">
        <g>
            <g>
                <g>
                    <g>
                        <path fill="#1967FA" d="M0 0H120V120H0z" transform="translate(-960 -1334) translate(120 1134) translate(40 120) translate(800 80)"/>
                        <g fill-rule="nonzero">
                            <path d="M40 21.238c0-.2-.114-.392-.293-.493l-9.432-5.295.024-9.338c0-.201-.113-.395-.293-.495L20.274.152c-.182-.102-.406-.102-.587.001L10.02 5.616c-.181.088-.293.301-.294.493l-.024 9.334-9.383 5.302c-.18.088-.293.301-.294.492L0 30.901c0 .203.111.393.293.494l9.732 5.465c.16.117.421.093.588-.001l4.475-2.53c.28-.158.375-.506.212-.778-.162-.272-.52-.365-.8-.207l-3.593 2.03.022-8.342 8.495-4.801-.022 8.343-2.414 1.364c-.28.158-.375.507-.212.779.162.272.52.364.8.206l2.412-1.363 9.439 5.3c.16.117.421.093.587-.001l9.67-5.465c.18-.101.29-.288.29-.49l.01-3.26c0-.315-.262-.57-.585-.571h-.002c-.323 0-.585.254-.586.568l-.007 2.932-8.496 4.802.022-8.344 8.496-4.8-.008 2.787c0 .315.261.57.584.572h.002c.323 0 .585-.254.586-.569l.01-3.78v-.003zm-20.543-9.335l-.022 8.35-8.562-4.808.022-8.35 8.562 4.808zm-9.176 4.53l8.563 4.807-8.501 4.805-8.563-4.808 8.501-4.804zm10.315 5.792l8.562 4.807-.022 8.349-8.562-4.807.022-8.35zm9.148 3.82l-8.56-4.807 8.5-4.804 8.561 4.806-8.501 4.805zm-9.762-24.74l8.562 4.807-4.574 2.585c-.28.158-.375.507-.212.779.162.272.521.364.801.206l4.566-2.58-.022 8.34-8.495 4.802.022-8.341 1.551-.877c.28-.158.375-.507.212-.779-.162-.272-.521-.365-.8-.206l-1.55.875-8.562-4.807 8.501-4.805zM1.195 22.224l8.562 4.807-.022 8.349-8.562-4.807.022-8.35z" transform="translate(-960 -1334) translate(120 1134) translate(40 120) translate(800 80) translate(40 40)"/>
                        </g>
                    </g>
                </g>
            </g>
        </g>
    </g>
</svg>
