<svg xmlns="http://www.w3.org/2000/svg" width="80" height="80" viewBox="0 0 80 80">
    <g fill="none" fill-rule="evenodd">
        <g>
            <g>
                <g>
                    <path fill="#1967FA" d="M0 0H80V80H0z" transform="translate(-160 -2424) translate(120 2314) translate(40 110)"/>
                    <g fill="#FFF" fill-rule="nonzero">
                        <path d="M9.941 21.292H2.505v7.436H9.94v-7.436zm-1.174 6.262H3.68v-5.088h5.088v5.088z" transform="translate(-160 -2424) translate(120 2314) translate(40 110) translate(20 20)"/>
                        <path d="M1.174 7.437L0 7.437 0 31.233 21.292 31.233 21.292 30.059 1.174 30.059zM30.059 7.437h1.174V0H0v6.184h30.059v1.253zM1.174 5.01V1.174H30.06V5.01H1.174z" transform="translate(-160 -2424) translate(120 2314) translate(40 110) translate(20 20)"/>
                        <path d="M3.131 2.505L4.384 2.505 4.384 3.679 3.131 3.679zM5.636 2.505L6.888 2.505 6.888 3.679 5.636 3.679zM8.141 2.505L9.393 2.505 9.393 3.679 8.141 3.679zM2.505 16.204L21.292 16.204 21.292 15.029 3.679 15.029 3.679 8.689 21.292 8.689 21.292 7.515 2.505 7.515zM2.505 18.16L21.292 18.16 21.292 19.335 2.505 19.335zM11.272 24.423L21.292 24.423 21.292 25.597 11.272 25.597zM11.272 21.292L21.292 21.292 21.292 22.466 11.272 22.466zM11.272 27.554L21.292 27.554 21.292 28.728 11.272 28.728zM32.485 30.059H25.05v7.436h7.436V30.06zm-1.174 6.262h-5.088v-5.088h5.088v5.088z" transform="translate(-160 -2424) translate(120 2314) translate(40 110) translate(20 20)"/>
                        <path d="M22.544 8.767V40H40V8.767H22.544zm16.282 30.059H23.718V14.95h15.108v23.875zm0-25.05H23.718V9.942h15.108v3.836z" transform="translate(-160 -2424) translate(120 2314) translate(40 110) translate(20 20)"/>
                        <path d="M25.675 11.272L26.927 11.272 26.927 12.446 25.675 12.446zM28.18 11.272L29.432 11.272 29.432 12.446 28.18 12.446zM30.685 11.272L31.937 11.272 31.937 12.446 30.685 12.446zM37.495 16.282H25.05v8.689h12.446v-8.69zm-1.174 7.514H26.223v-6.34h10.098v6.34zM25.049 26.927L37.573 26.927 37.573 28.102 25.049 28.102zM33.816 33.19L37.573 33.19 37.573 34.364 33.816 34.364zM33.816 30.059L37.573 30.059 37.573 31.233 33.816 31.233zM33.816 36.321L37.573 36.321 37.573 37.495 33.816 37.495z" transform="translate(-160 -2424) translate(120 2314) translate(40 110) translate(20 20)"/>
                    </g>
                </g>
            </g>
        </g>
    </g>
</svg>
