<svg xmlns="http://www.w3.org/2000/svg" width="80" height="80" viewBox="0 0 80 80">
    <g fill="none" fill-rule="evenodd">
        <g>
            <g>
                <g>
                    <path fill="#1967FA" d="M0 0H80V80H0z" transform="translate(-740 -2544) translate(120 2314) translate(620 230)"/>
                    <g fill="#FFF" fill-rule="nonzero">
                        <path d="M.65 22.99h13.001c.36 0 .65-.299.65-.667v-7.996c0-.368-.29-.666-.65-.666h-13c-.36 0-.651.298-.651.666v7.996c0 .368.29.666.65.666zm.65-7.996h11.701v6.663h-11.7v-6.663z" transform="translate(-740 -2544) translate(120 2314) translate(620 230) translate(20 20)"/>
                        <path d="M4.09 16.521l-1.3 1.333c-.253.26-.253.682 0 .942l1.3 1.333.92-.942-.84-.862.84-.861-.92-.943zM10.21 16.521l-.919.943.84.861-.84.862.92.942 1.3-1.333c.253-.26.253-.682 0-.942l-1.3-1.333zM5.883 20.113L7.184 16.115 8.418 16.537 7.117 20.535zM39.33.998H17.226c-.36 0-.65.298-.65.666V14.99c0 .369.29.667.65.667H39.33c.36 0 .65-.298.65-.667V1.664c0-.368-.29-.666-.65-.666zm-.65 13.326H17.876v-1.622l5.838-3.59 5.69 3.773c.196.129.444.141.65.032l4.707-2.499 3.917 2.294v1.612zm0-3.147l-3.576-2.095c-.192-.113-.426-.118-.622-.014l-4.685 2.488-5.714-3.788c-.208-.138-.475-.143-.688-.012l-5.518 3.392V2.33H38.68v8.847z" transform="translate(-740 -2544) translate(120 2314) translate(620 230) translate(20 20)"/>
                        <path d="M30.878 8.327c1.256 0 2.275-1.044 2.275-2.332 0-1.288-1.019-2.332-2.275-2.332-1.257 0-2.275 1.044-2.275 2.332 0 1.288 1.018 2.332 2.275 2.332zm0-3.331c.538 0 .975.447.975 1 0 .551-.437.999-.975.999-.539 0-.975-.448-.975-1s.436-1 .975-1zM2.598 27.988v7.996c0 .368.291.666.65.666H19.5c.359 0 .65-.298.65-.666v-7.996c0-.368-.291-.666-.65-.666H3.248c-.359 0-.65.298-.65.666zm1.3.667H18.85v6.663H3.898v-6.663z" transform="translate(-740 -2544) translate(120 2314) translate(620 230) translate(20 20)"/>
                        <path d="M5.198 29.987L7.799 29.987 7.799 31.32 5.198 31.32zM9.099 29.987L14.949 29.987 14.949 31.32 9.099 31.32zM16.249 29.987L17.55 29.987 17.55 31.32 16.249 31.32zM5.198 32.652L12.999 32.652 12.999 33.985 5.198 33.985zM14.299 32.652L17.55 32.652 17.55 33.985 14.299 33.985zM39.33 29.987H26.977c-.36 0-.65.298-.65.667v7.995c0 .368.29.667.65.667h12.351c.36 0 .65-.299.65-.667v-7.995c0-.369-.29-.667-.65-.667zm-.65 7.996H27.627V31.32H38.68v6.663z" transform="translate(-740 -2544) translate(120 2314) translate(620 230) translate(20 20)"/>
                        <path d="M28.928 32.652L30.228 32.652 30.228 33.985 28.928 33.985zM28.928 35.318L30.228 35.318 30.228 36.65 28.928 36.65zM31.528 32.652L37.379 32.652 37.379 33.985 31.528 33.985zM31.528 35.318L37.379 35.318 37.379 36.65 31.528 36.65z" transform="translate(-740 -2544) translate(120 2314) translate(620 230) translate(20 20)"/>
                    </g>
                </g>
            </g>
        </g>
    </g>
</svg>
