<svg xmlns="http://www.w3.org/2000/svg" width="120" height="120" viewBox="0 0 120 120">
    <g fill="none" fill-rule="evenodd">
        <g>
            <g>
                <g>
                    <g>
                        <path fill="#1967FA" d="M0 0H120V120H0z" transform="translate(-554 -1294) translate(120 1134) translate(40 120) translate(394 40)"/>
                        <g fill="#FFF" fill-rule="nonzero">
                            <path d="M2.5 2.5L3.75 2.5 3.75 3.75 2.5 3.75zM5 2.5L6.25 2.5 6.25 3.75 5 3.75zM7.5 2.5L8.75 2.5 8.75 3.75 7.5 3.75zM27.5 20.625L28.75 20.625 28.75 21.875 27.5 21.875zM30 20.625L31.25 20.625 31.25 21.875 30 21.875zM13.75 12.5L15 12.5 15 13.75 13.75 13.75zM16.25 12.5L17.5 12.5 17.5 13.75 16.25 13.75zM18.75 12.5L20 12.5 20 13.75 18.75 13.75z" transform="translate(-554 -1294) translate(120 1134) translate(40 120) translate(394 40) translate(40 40)"/>
                            <path d="M0 0v32.5h11.25v6.25H25V40h15V0H0zm38.75 23.125h-12.5v-3.75h12.5v3.75zM35 15H12.5v-3.75H35V15zm3.75 3.125h-2.5V10h-25v8.75h1.25v-2.5H35v1.875H25v8.125h1.25v-1.875h12.5V38.75h-12.5V35H25v2.5H12.5v-10h-1.25v3.75h-10v-25h37.5v11.875zM38.75 5H1.25V1.25h37.5V5z" transform="translate(-554 -1294) translate(120 1134) translate(40 120) translate(394 40) translate(40 40)"/>
                            <path d="M14.817 17.683L13.933 18.567 15.991 20.625 5 20.625 5 21.875 19.009 21.875zM9.817 27.683L7.759 25.625 18.75 25.625 18.75 24.375 4.741 24.375 8.933 28.567zM18.75 29.375L32.759 29.375 28.567 25.183 27.683 26.067 29.741 28.125 18.75 28.125zM22.683 36.067L23.567 35.183 21.509 33.125 32.5 33.125 32.5 31.875 18.491 31.875z" transform="translate(-554 -1294) translate(120 1134) translate(40 120) translate(394 40) translate(40 40)"/>
                        </g>
                    </g>
                </g>
            </g>
        </g>
    </g>
</svg>
