<svg xmlns="http://www.w3.org/2000/svg" width="120" height="120" viewBox="0 0 120 120">
    <g fill="none" fill-rule="evenodd">
        <g>
            <g>
                <g>
                    <g>
                        <path fill="#1967FA" d="M0 0H120V120H0z" transform="translate(-160 -1254) translate(120 1134) translate(40 120)"/>
                        <path fill="#FFF" fill-rule="nonzero" d="M79.44 45.672l-5.113-5.113c-.745-.745-1.957-.745-2.702 0l-9.628 9.628c-.241.241-.241.632 0 .873s.632.241.873 0l9.628-9.628c.128-.128.298-.198.478-.198s.35.07.478.198l5.114 5.114c.127.127.198.297.198.477s-.07.35-.198.478l-1.255 1.255-3.288-3.288c-.241-.241-.632-.241-.873 0-.242.241-.242.632 0 .873l3.288 3.288-1.434 1.434-1.445-1.445c-.241-.241-.632-.241-.873 0s-.241.632 0 .873l1.445 1.445-1.434 1.434-1.445-1.445c-.241-.241-.632-.241-.873 0-.241.24-.241.632 0 .873l1.445 1.445-1.434 1.434-3.288-3.288c-.241-.241-.632-.242-.873 0-.241.24-.241.631 0 .873l3.288 3.288-1.434 1.434-1.445-1.445c-.241-.241-.632-.241-.873 0-.241.24-.241.631 0 .873l1.445 1.445L66 60.07 59.93 54l1.13-1.129c.24-.24.24-.632 0-.873-.241-.24-.632-.24-.873 0l-1.13 1.13-11.388-11.389c-.792-.792-1.845-1.228-2.965-1.228-1.12 0-2.173.436-2.965 1.228-.792.792-1.228 1.845-1.228 2.966 0 1.12.436 2.173 1.228 2.965l11.388 11.388-12.567 12.567c-.745.745-.745 1.957 0 2.702l5.114 5.113c.36.361.84.56 1.35.56.511 0 .99-.199 1.352-.56l12.567-12.567.895.896c.24.24.632.24.873 0 .24-.242.24-.632 0-.874l-1.236-1.235c-.024-.038-.052-.074-.085-.107-.033-.033-.069-.061-.107-.085L47.905 52.09l1.656-1.656 1.024 1.024c.12.12.278.18.436.18.158 0 .316-.06.437-.18.24-.241.24-.632 0-.873l-1.024-1.024 1.656-1.655 6.53 6.53v.001l6.882 6.881c.017.023.035.045.056.065.02.02.042.04.065.056l9.162 9.162-1.656 1.655-9.243-9.243-.017-.018-3.686-3.687c-.006-.006-.013-.01-.019-.017l-6.511-6.51c-.241-.242-.632-.242-.873 0-.241.24-.241.631 0 .872L72.256 73.13 70.6 74.786l-5.867-5.867c-.24-.241-.632-.241-.873 0-.24.24-.24.632 0 .873l6.304 6.303c.06.06.134.109.213.14l7.459 2.895c.118.046.24.068.362.068.261 0 .517-.102.709-.294.28-.28.369-.7.225-1.07l-2.9-7.456c-.03-.079-.078-.153-.138-.213l-9.222-9.222 12.569-12.569c.745-.745.745-1.957 0-2.702zM60.07 66l-1.212 1.212-1.445-1.446c-.24-.24-.632-.24-.873 0-.24.242-.24.632 0 .874l1.445 1.445-1.433 1.434-3.289-3.289c-.24-.24-.632-.24-.873 0-.24.241-.24.632 0 .873l3.288 3.289-1.433 1.433-1.445-1.445c-.242-.24-.632-.24-.874 0-.24.241-.24.632 0 .873l1.446 1.446-1.434 1.433-1.445-1.445c-.241-.24-.632-.24-.873 0-.242.241-.242.632 0 .873l1.445 1.445-1.434 1.434-3.288-3.288c-.241-.24-.632-.24-.873 0-.241.241-.241.632 0 .873l3.288 3.288-1.255 1.255c-.128.128-.297.198-.478.198-.18 0-.35-.07-.478-.198l-5.114-5.114c-.263-.263-.263-.692 0-.955L54 59.93 60.07 66zM42.61 46.797c-1.153-1.154-1.153-3.03 0-4.184 1.154-1.154 3.03-1.154 4.184 0l1.952 1.95-4.185 4.185-1.95-1.951zm6.514 2.328v.001l-2.093 2.092-1.596-1.597 4.184-4.184 1.597 1.597-2.092 2.091zm28.664 28.663l-6.083-2.362 3.719-3.719 2.364 6.08z" transform="translate(-160 -1254) translate(120 1134) translate(40 120)"/>
                    </g>
                </g>
            </g>
        </g>
    </g>
</svg>
