<svg xmlns="http://www.w3.org/2000/svg" width="80" height="80" viewBox="0 0 80 80">
    <g fill="none" fill-rule="evenodd">
        <g>
            <g>
                <g>
                    <path fill="#1967FA" d="M0 0H80V80H0z" transform="translate(-740 -2424) translate(120 2314) translate(620 110)"/>
                    <g fill="#FFF" fill-rule="nonzero">
                        <path d="M38 0H2C.895 0 0 .895 0 2v36c0 1.105.895 2 2 2h36c1.105 0 2-.895 2-2V2c0-1.105-.895-2-2-2zm.667 38c0 .368-.299.667-.667.667H2c-.368 0-.667-.299-.667-.667V6.667h37.334V38zM1.333 5.333V2c0-.368.299-.667.667-.667h36c.368 0 .667.299.667.667v3.333H1.333z" transform="translate(-740 -2424) translate(120 2314) translate(620 110) translate(20 20)"/>
                        <path d="M9.55 13L7 15.586 9.55 18.173 10.522 17.186 8.945 15.586 10.522 13.987zM16.025 18.173L18.575 15.586 16.025 13 15.052 13.987 16.63 15.586 15.052 17.186zM9.55 27.558L7 30.144 9.55 32.731 10.522 31.744 8.945 30.144 10.522 28.545zM15.052 28.545L16.63 30.144 15.052 31.744 16.025 32.731 18.575 30.144 16.025 27.558zM11.412 14.889H14.163V16.284H11.412z" transform="translate(-740 -2424) translate(120 2314) translate(620 110) translate(20 20)"/>
                        <path d="M10.587 29.465L14.994 29.446 14.988 30.823 10.581 30.842z" transform="translate(-740 -2424) translate(120 2314) translate(620 110) translate(20 20) rotate(-71.547 12.787 30.144)"/>
                        <path d="M12.787 20.772H15.538V22.166999999999998H12.787zM16.914 20.772H32.734V22.166999999999998H16.914zM12.787 23.563H15.538V24.958H12.787zM16.914 23.563H32.734V24.958H16.914zM2.667 2.667H4V4H2.667zM5.333 2.667H6.666V4H5.333zM8 2.667H9.333V4H8z" transform="translate(-740 -2424) translate(120 2314) translate(620 110) translate(20 20)"/>
                    </g>
                </g>
            </g>
        </g>
    </g>
</svg>
